<?xml version="1.0" encoding="UTF-8" standalone="no"?>
<!-- Created with Digital by H.Neemann -->
<!-- created: Sun Oct 25 01:52:17 CDT 2020 -->

<svg
   xmlns:svg="http://www.w3.org/2000/svg"
   xmlns="http://www.w3.org/2000/svg"
   width="257.85mm"
   height="85.2mm"
   viewBox="-291 129 1719 568">
<g stroke-linecap="square">
<path d="M 910,620 L 930,620" stroke="#000000" stroke-width="6.0" fill="none"/>
<path d="M 290,620 L 310,620" stroke="#000000" stroke-width="6.0" fill="none"/>
<path d="M 1000,320 L 1060,320" stroke="#0000b2" stroke-width="4.0" fill="none"/>
<path d="M 1180,320 L 1240,320" stroke="#0000b2" stroke-width="4.0" fill="none"/>
<path d="M 1000,480 L 1060,480" stroke="#0000b2" stroke-width="4.0" fill="none"/>
<path d="M 1180,480 L 1240,480" stroke="#0000b2" stroke-width="4.0" fill="none"/>
<path d="M 300,620 L 300,480 L 500,480" stroke="#0000b2" stroke-width="4.0" fill="none"/>
<path d="M -120,580 L -40,580" stroke="#0000b2" stroke-width="4.0" fill="none"/>
<path d="M 1000,520 L 1060,520" stroke="#0000b2" stroke-width="4.0" fill="none"/>
<path d="M 1180,520 L 1240,520" stroke="#0000b2" stroke-width="4.0" fill="none"/>
<path d="M 800,520 L 980,520" stroke="#0000b2" stroke-width="4.0" fill="none"/>
<path d="M -120,520 L -40,520" stroke="#0000b2" stroke-width="4.0" fill="none"/>
<path d="M 1260,520 L 1340,520" stroke="#0000b2" stroke-width="4.0" fill="none"/>
<path d="M 1180,200 L 1260,200 L 1260,140" stroke="#0000b2" stroke-width="4.0" fill="none"/>
<path d="M 1000,360 L 1060,360" stroke="#0000b2" stroke-width="4.0" fill="none"/>
<path d="M 1180,360 L 1240,360" stroke="#0000b2" stroke-width="4.0" fill="none"/>
<path d="M -120,680 L -40,680" stroke="#0000b2" stroke-width="4.0" fill="none"/>
<path d="M -120,460 L -40,460" stroke="#0000b2" stroke-width="4.0" fill="none"/>
<path d="M 1000,400 L 1060,400" stroke="#0000b2" stroke-width="4.0" fill="none"/>
<path d="M 1180,400 L 1240,400" stroke="#0000b2" stroke-width="4.0" fill="none"/>
<path d="M -120,400 L -40,400" stroke="#0000b2" stroke-width="4.0" fill="none"/>
<path d="M 1000,240 L 1060,240" stroke="#0000b2" stroke-width="4.0" fill="none"/>
<path d="M 1180,240 L 1240,240" stroke="#0000b2" stroke-width="4.0" fill="none"/>
<path d="M 1180,560 L 1240,560" stroke="#0000b2" stroke-width="4.0" fill="none"/>
<path d="M 420,560 L 500,560" stroke="#0000b2" stroke-width="4.0" fill="none"/>
<path d="M 420,500 L 500,500" stroke="#0000b2" stroke-width="4.0" fill="none"/>
<path d="M 1000,280 L 1060,280" stroke="#0000b2" stroke-width="4.0" fill="none"/>
<path d="M 1180,280 L 1240,280" stroke="#0000b2" stroke-width="4.0" fill="none"/>
<path d="M 1000,440 L 1060,440" stroke="#0000b2" stroke-width="4.0" fill="none"/>
<path d="M 1180,440 L 1240,440" stroke="#0000b2" stroke-width="4.0" fill="none"/>
<path d="M 420,540 L 500,540" stroke="#0000b2" stroke-width="4.0" fill="none"/>
<path d="M 1060,200 L 920,200 L 920,560 L 1060,560" stroke="#0000b2" stroke-width="4.0" fill="none"/>
<path d="M 920,560 L 920,620" stroke="#0000b2" stroke-width="4.0" fill="none"/>
<path d="M 1260,134 L 1260,140" stroke="#000000" stroke-width="4.0" fill="none"/>
<path d="M 980,520 L 990,520 L 1000,520" stroke="#000000" stroke-width="4.0" fill="none"/>
<path d="M 1000,480 L 990,480" stroke="#000000" stroke-width="4.0" fill="none"/>
<path d="M 1000,440 L 990,440" stroke="#000000" stroke-width="4.0" fill="none"/>
<path d="M 1000,400 L 990,400" stroke="#000000" stroke-width="4.0" fill="none"/>
<path d="M 1000,360 L 990,360" stroke="#000000" stroke-width="4.0" fill="none"/>
<path d="M 1000,320 L 990,320" stroke="#000000" stroke-width="4.0" fill="none"/>
<path d="M 1000,280 L 990,280" stroke="#000000" stroke-width="4.0" fill="none"/>
<path d="M 1000,240 L 990,240" stroke="#000000" stroke-width="4.0" fill="none"/>
<path d="M 1240,520 L 1250,520 L 1260,520" stroke="#000000" stroke-width="4.0" fill="none"/>
<path d="M 1240,480 L 1250,480" stroke="#000000" stroke-width="4.0" fill="none"/>
<path d="M 1240,440 L 1250,440" stroke="#000000" stroke-width="4.0" fill="none"/>
<path d="M 1240,400 L 1250,400" stroke="#000000" stroke-width="4.0" fill="none"/>
<path d="M 1240,360 L 1250,360" stroke="#000000" stroke-width="4.0" fill="none"/>
<path d="M 1240,320 L 1250,320" stroke="#000000" stroke-width="4.0" fill="none"/>
<path d="M 1240,280 L 1250,280" stroke="#000000" stroke-width="4.0" fill="none"/>
<path d="M 1240,240 L 1250,240" stroke="#000000" stroke-width="4.0" fill="none"/>
<g>
<circle cx="920.0" cy="560.0" r="4.0" stroke="#0000b2" stroke-width="4.0" fill="#0000b2" />
</g>
<g>
<path d="M -151,385 L -121,385 L -121,415 L -151,415 Z" stroke="#000000" stroke-width="4.0" fill="none"/>
<text text-anchor="end" x="-165.0" y="409.0" fill="#000000" style="font-size:24px">Clock</text>
<path d="M -145,405 L -140,405 L -140,395 L -135,395 L -135,405 L -130,405 L -130,395 L -125,395" stroke="#000000" stroke-width="2.0" fill="none"/>
<circle cx="-120.0" cy="400.0" r="2.0" stroke="#b20000" stroke-width="4.0" fill="#b20000" />
</g>
<g>
<path d="M -151,445 L -121,445 L -121,475 L -151,475 Z" stroke="#000000" stroke-width="4.0" fill="none"/>
<circle cx="-136.0" cy="460.0" r="9.0" stroke="#000000" stroke-width="4.0" fill="none" />
<text text-anchor="end" x="-165.0" y="469.0" fill="#000000" style="font-size:24px"><tspan style="font-style:italic;">LogicSelect</tspan></text>
<circle cx="-120.0" cy="460.0" r="2.0" stroke="#b20000" stroke-width="4.0" fill="#b20000" />
</g>
<g>
<circle cx="-24.0" cy="680.0" r="9.0" stroke="#000000" stroke-width="4.0" fill="none" />
<circle cx="-24.0" cy="680.0" r="15.0" stroke="#000000" stroke-width="4.0" fill="none" />
<text text-anchor="start" x="5.0" y="689.0" fill="#000000" style="font-size:24px"><tspan style="font-style:italic;">RHSOut</tspan></text>
<circle cx="-40.0" cy="680.0" r="2.0" stroke="#0000b2" stroke-width="4.0" fill="#0000b2" />
</g>
<g>
<path d="M -151,565 L -121,565 L -121,595 L -151,595 Z" stroke="#000000" stroke-width="4.0" fill="none"/>
<circle cx="-136.0" cy="580.0" r="9.0" stroke="#000000" stroke-width="4.0" fill="none" />
<text text-anchor="end" x="-165.0" y="589.0" fill="#000000" style="font-size:24px"><tspan style="font-style:italic;">RHS</tspan></text>
<circle cx="-120.0" cy="580.0" r="2.0" stroke="#b20000" stroke-width="4.0" fill="#b20000" />
</g>
<g>
<path d="M 501,466 L 799,466 L 799,574 L 501,574 Z" stroke="#ccffcc" stroke-width="0.0" fill="#ccffcc" fill-opacity="1.0"/>
<path d="M 501,466 L 799,466 L 799,574 L 501,574 Z" stroke="#000000" stroke-width="4.0" fill="none"/>
<text text-anchor="start" x="504.0" y="486.75" fill="#808080" style="font-size:18px"><tspan style="text-decoration:overline;">OE</tspan></text>
<text text-anchor="start" x="504.0" y="506.75" fill="#808080" style="font-size:18px">LogicSelect</text>
<text text-anchor="start" x="504.0" y="546.75" fill="#808080" style="font-size:18px">B</text>
<text text-anchor="start" x="504.0" y="566.75" fill="#808080" style="font-size:18px">A</text>
<text text-anchor="end" x="796.0" y="526.75" fill="#808080" style="font-size:18px">Y</text>
<text text-anchor="middle" x="650.0" y="591.5" fill="#808080" style="font-size:18px">universal-logic-8bit</text>
<circle cx="500.0" cy="480.0" r="2.0" stroke="#0000b2" stroke-width="4.0" fill="#0000b2" />
<circle cx="500.0" cy="500.0" r="2.0" stroke="#0000b2" stroke-width="4.0" fill="#0000b2" />
<circle cx="500.0" cy="540.0" r="2.0" stroke="#0000b2" stroke-width="4.0" fill="#0000b2" />
<circle cx="500.0" cy="560.0" r="2.0" stroke="#0000b2" stroke-width="4.0" fill="#0000b2" />
<circle cx="800.0" cy="520.0" r="2.0" stroke="#b20000" stroke-width="4.0" fill="#b20000" />
</g>
<g>
<path d="M 1070,190 L 1062,190 L 1062,210 L 1070,210" stroke="#000000" stroke-width="4.0" fill="none"/>
<text text-anchor="start" x="1075.0" y="206.75" fill="#808080" style="font-size:18px"><tspan style="text-decoration:overline;">OC</tspan></text>
<path d="M 1170,190 L 1178,190 L 1178,210 L 1170,210" stroke="#000000" stroke-width="4.0" fill="none"/>
<text text-anchor="end" x="1165.0" y="206.75" fill="#808080" style="font-size:18px">VCC</text>
<path d="M 1070,230 L 1062,230 L 1062,250 L 1070,250" stroke="#000000" stroke-width="4.0" fill="none"/>
<text text-anchor="start" x="1075.0" y="246.75" fill="#808080" style="font-size:18px">D0</text>
<path d="M 1170,230 L 1178,230 L 1178,250 L 1170,250" stroke="#000000" stroke-width="4.0" fill="none"/>
<text text-anchor="end" x="1165.0" y="246.75" fill="#808080" style="font-size:18px">Q0</text>
<path d="M 1070,270 L 1062,270 L 1062,290 L 1070,290" stroke="#000000" stroke-width="4.0" fill="none"/>
<text text-anchor="start" x="1075.0" y="286.75" fill="#808080" style="font-size:18px">D1</text>
<path d="M 1170,270 L 1178,270 L 1178,290 L 1170,290" stroke="#000000" stroke-width="4.0" fill="none"/>
<text text-anchor="end" x="1165.0" y="286.75" fill="#808080" style="font-size:18px">Q1</text>
<path d="M 1070,310 L 1062,310 L 1062,330 L 1070,330" stroke="#000000" stroke-width="4.0" fill="none"/>
<text text-anchor="start" x="1075.0" y="326.75" fill="#808080" style="font-size:18px">D2</text>
<path d="M 1170,310 L 1178,310 L 1178,330 L 1170,330" stroke="#000000" stroke-width="4.0" fill="none"/>
<text text-anchor="end" x="1165.0" y="326.75" fill="#808080" style="font-size:18px">Q2</text>
<path d="M 1070,350 L 1062,350 L 1062,370 L 1070,370" stroke="#000000" stroke-width="4.0" fill="none"/>
<text text-anchor="start" x="1075.0" y="366.75" fill="#808080" style="font-size:18px">D3</text>
<path d="M 1170,350 L 1178,350 L 1178,370 L 1170,370" stroke="#000000" stroke-width="4.0" fill="none"/>
<text text-anchor="end" x="1165.0" y="366.75" fill="#808080" style="font-size:18px">Q3</text>
<path d="M 1070,390 L 1062,390 L 1062,410 L 1070,410" stroke="#000000" stroke-width="4.0" fill="none"/>
<text text-anchor="start" x="1075.0" y="406.75" fill="#808080" style="font-size:18px">D4</text>
<path d="M 1170,390 L 1178,390 L 1178,410 L 1170,410" stroke="#000000" stroke-width="4.0" fill="none"/>
<text text-anchor="end" x="1165.0" y="406.75" fill="#808080" style="font-size:18px">Q4</text>
<path d="M 1070,430 L 1062,430 L 1062,450 L 1070,450" stroke="#000000" stroke-width="4.0" fill="none"/>
<text text-anchor="start" x="1075.0" y="446.75" fill="#808080" style="font-size:18px">D5</text>
<path d="M 1170,430 L 1178,430 L 1178,450 L 1170,450" stroke="#000000" stroke-width="4.0" fill="none"/>
<text text-anchor="end" x="1165.0" y="446.75" fill="#808080" style="font-size:18px">Q5</text>
<path d="M 1070,470 L 1062,470 L 1062,490 L 1070,490" stroke="#000000" stroke-width="4.0" fill="none"/>
<text text-anchor="start" x="1075.0" y="486.75" fill="#808080" style="font-size:18px">D6</text>
<path d="M 1170,470 L 1178,470 L 1178,490 L 1170,490" stroke="#000000" stroke-width="4.0" fill="none"/>
<text text-anchor="end" x="1165.0" y="486.75" fill="#808080" style="font-size:18px">Q6</text>
<path d="M 1070,510 L 1062,510 L 1062,530 L 1070,530" stroke="#000000" stroke-width="4.0" fill="none"/>
<text text-anchor="start" x="1075.0" y="526.75" fill="#808080" style="font-size:18px">D7</text>
<path d="M 1170,510 L 1178,510 L 1178,530 L 1170,530" stroke="#000000" stroke-width="4.0" fill="none"/>
<text text-anchor="end" x="1165.0" y="526.75" fill="#808080" style="font-size:18px">Q7</text>
<path d="M 1070,550 L 1062,550 L 1062,570 L 1070,570" stroke="#000000" stroke-width="4.0" fill="none"/>
<text text-anchor="start" x="1075.0" y="566.75" fill="#808080" style="font-size:18px">GND</text>
<path d="M 1170,550 L 1178,550 L 1178,570 L 1170,570" stroke="#000000" stroke-width="4.0" fill="none"/>
<text text-anchor="end" x="1165.0" y="566.75" fill="#808080" style="font-size:18px">CLK</text>
<path d="M 1070,180 L 1110,180 C 1110,186 1114,190 1120,190 C 1126,190 1130,186 1130,180 L 1170,180 L 1170,580 L 1070,580 Z" stroke="#000000" stroke-width="4.0" fill="none"/>
<text text-anchor="end" x="1120.0" y="219.0" fill="#000000" style="font-size:24px" transform="rotate(-90,1120.0,210.0)" >74574</text>
<circle cx="1060.0" cy="200.0" r="2.0" stroke="#0000b2" stroke-width="4.0" fill="#0000b2" />
<circle cx="1060.0" cy="240.0" r="2.0" stroke="#0000b2" stroke-width="4.0" fill="#0000b2" />
<circle cx="1060.0" cy="280.0" r="2.0" stroke="#0000b2" stroke-width="4.0" fill="#0000b2" />
<circle cx="1060.0" cy="320.0" r="2.0" stroke="#0000b2" stroke-width="4.0" fill="#0000b2" />
<circle cx="1060.0" cy="360.0" r="2.0" stroke="#0000b2" stroke-width="4.0" fill="#0000b2" />
<circle cx="1060.0" cy="400.0" r="2.0" stroke="#0000b2" stroke-width="4.0" fill="#0000b2" />
<circle cx="1060.0" cy="440.0" r="2.0" stroke="#0000b2" stroke-width="4.0" fill="#0000b2" />
<circle cx="1060.0" cy="480.0" r="2.0" stroke="#0000b2" stroke-width="4.0" fill="#0000b2" />
<circle cx="1060.0" cy="520.0" r="2.0" stroke="#0000b2" stroke-width="4.0" fill="#0000b2" />
<circle cx="1060.0" cy="560.0" r="2.0" stroke="#0000b2" stroke-width="4.0" fill="#0000b2" />
<circle cx="1180.0" cy="560.0" r="2.0" stroke="#0000b2" stroke-width="4.0" fill="#0000b2" />
<circle cx="1180.0" cy="520.0" r="2.0" stroke="#b20000" stroke-width="4.0" fill="#b20000" />
<circle cx="1180.0" cy="480.0" r="2.0" stroke="#b20000" stroke-width="4.0" fill="#b20000" />
<circle cx="1180.0" cy="440.0" r="2.0" stroke="#b20000" stroke-width="4.0" fill="#b20000" />
<circle cx="1180.0" cy="400.0" r="2.0" stroke="#b20000" stroke-width="4.0" fill="#b20000" />
<circle cx="1180.0" cy="360.0" r="2.0" stroke="#b20000" stroke-width="4.0" fill="#b20000" />
<circle cx="1180.0" cy="320.0" r="2.0" stroke="#b20000" stroke-width="4.0" fill="#b20000" />
<circle cx="1180.0" cy="280.0" r="2.0" stroke="#b20000" stroke-width="4.0" fill="#b20000" />
<circle cx="1180.0" cy="240.0" r="2.0" stroke="#b20000" stroke-width="4.0" fill="#b20000" />
<circle cx="1180.0" cy="200.0" r="2.0" stroke="#0000b2" stroke-width="4.0" fill="#0000b2" />
</g>
<g>
<circle cx="920.0" cy="620.0" r="2.0" stroke="#b20000" stroke-width="4.0" fill="#b20000" />
</g>
<g>
<path d="M 1250,144 L 1260,131 L 1270,144" stroke="#000000" stroke-width="4.0" fill="none"/>
<circle cx="1260.0" cy="140.0" r="2.0" stroke="#b20000" stroke-width="4.0" fill="#b20000" />
</g>
<g>
<path d="M 1240,560 L 1254,568 L 1254,552 Z" stroke="#000000" stroke-width="4.0" fill="none"/>
<text text-anchor="start" x="1259.0" y="566.75" fill="#808080" style="font-size:18px">Clock</text>
<circle cx="1240.0" cy="560.0" r="2.0" stroke="#0000b2" stroke-width="4.0" fill="#0000b2" />
</g>
<g>
<text text-anchor="end" x="978.0" y="532.0" fill="#808080" style="font-size:12px">0-7</text>
<text text-anchor="start" x="1002.0" y="532.0" fill="#808080" style="font-size:12px">0</text>
<text text-anchor="start" x="1002.0" y="492.0" fill="#808080" style="font-size:12px">1</text>
<text text-anchor="start" x="1002.0" y="452.0" fill="#808080" style="font-size:12px">2</text>
<text text-anchor="start" x="1002.0" y="412.0" fill="#808080" style="font-size:12px">3</text>
<text text-anchor="start" x="1002.0" y="372.0" fill="#808080" style="font-size:12px">4</text>
<text text-anchor="start" x="1002.0" y="332.0" fill="#808080" style="font-size:12px">5</text>
<text text-anchor="start" x="1002.0" y="292.0" fill="#808080" style="font-size:12px">6</text>
<text text-anchor="start" x="1002.0" y="252.0" fill="#808080" style="font-size:12px">7</text>
<path d="M 988,522 L 992,522 L 992,238 L 988,238 Z" stroke="#000000" stroke-width="4.0" fill="#000000" fill-opacity="1.0"/>
<circle cx="980.0" cy="520.0" r="2.0" stroke="#0000b2" stroke-width="4.0" fill="#0000b2" />
<circle cx="1000.0" cy="520.0" r="2.0" stroke="#b20000" stroke-width="4.0" fill="#b20000" />
<circle cx="1000.0" cy="480.0" r="2.0" stroke="#b20000" stroke-width="4.0" fill="#b20000" />
<circle cx="1000.0" cy="440.0" r="2.0" stroke="#b20000" stroke-width="4.0" fill="#b20000" />
<circle cx="1000.0" cy="400.0" r="2.0" stroke="#b20000" stroke-width="4.0" fill="#b20000" />
<circle cx="1000.0" cy="360.0" r="2.0" stroke="#b20000" stroke-width="4.0" fill="#b20000" />
<circle cx="1000.0" cy="320.0" r="2.0" stroke="#b20000" stroke-width="4.0" fill="#b20000" />
<circle cx="1000.0" cy="280.0" r="2.0" stroke="#b20000" stroke-width="4.0" fill="#b20000" />
<circle cx="1000.0" cy="240.0" r="2.0" stroke="#b20000" stroke-width="4.0" fill="#b20000" />
</g>
<g>
<text text-anchor="end" x="1238.0" y="532.0" fill="#808080" style="font-size:12px">0</text>
<text text-anchor="end" x="1238.0" y="492.0" fill="#808080" style="font-size:12px">1</text>
<text text-anchor="end" x="1238.0" y="452.0" fill="#808080" style="font-size:12px">2</text>
<text text-anchor="end" x="1238.0" y="412.0" fill="#808080" style="font-size:12px">3</text>
<text text-anchor="end" x="1238.0" y="372.0" fill="#808080" style="font-size:12px">4</text>
<text text-anchor="end" x="1238.0" y="332.0" fill="#808080" style="font-size:12px">5</text>
<text text-anchor="end" x="1238.0" y="292.0" fill="#808080" style="font-size:12px">6</text>
<text text-anchor="end" x="1238.0" y="252.0" fill="#808080" style="font-size:12px">7</text>
<text text-anchor="start" x="1262.0" y="532.0" fill="#808080" style="font-size:12px">0-7</text>
<path d="M 1248,522 L 1252,522 L 1252,238 L 1248,238 Z" stroke="#000000" stroke-width="4.0" fill="#000000" fill-opacity="1.0"/>
<circle cx="1240.0" cy="520.0" r="2.0" stroke="#0000b2" stroke-width="4.0" fill="#0000b2" />
<circle cx="1240.0" cy="480.0" r="2.0" stroke="#0000b2" stroke-width="4.0" fill="#0000b2" />
<circle cx="1240.0" cy="440.0" r="2.0" stroke="#0000b2" stroke-width="4.0" fill="#0000b2" />
<circle cx="1240.0" cy="400.0" r="2.0" stroke="#0000b2" stroke-width="4.0" fill="#0000b2" />
<circle cx="1240.0" cy="360.0" r="2.0" stroke="#0000b2" stroke-width="4.0" fill="#0000b2" />
<circle cx="1240.0" cy="320.0" r="2.0" stroke="#0000b2" stroke-width="4.0" fill="#0000b2" />
<circle cx="1240.0" cy="280.0" r="2.0" stroke="#0000b2" stroke-width="4.0" fill="#0000b2" />
<circle cx="1240.0" cy="240.0" r="2.0" stroke="#0000b2" stroke-width="4.0" fill="#0000b2" />
<circle cx="1260.0" cy="520.0" r="2.0" stroke="#b20000" stroke-width="4.0" fill="#b20000" />
</g>
<g>
<circle cx="300.0" cy="620.0" r="2.0" stroke="#b20000" stroke-width="4.0" fill="#b20000" />
</g>
<g>
<path d="M -40,460 L -26,468 L -26,452 Z" stroke="#000000" stroke-width="4.0" fill="none"/>
<text text-anchor="start" x="-21.0" y="466.75" fill="#808080" style="font-size:18px">LogicSelect</text>
<circle cx="-40.0" cy="460.0" r="2.0" stroke="#0000b2" stroke-width="4.0" fill="#0000b2" />
</g>
<g>
<path d="M -40,520 L -26,528 L -26,512 Z" stroke="#000000" stroke-width="4.0" fill="none"/>
<text text-anchor="start" x="-21.0" y="526.75" fill="#808080" style="font-size:18px">LHS</text>
<circle cx="-40.0" cy="520.0" r="2.0" stroke="#0000b2" stroke-width="4.0" fill="#0000b2" />
</g>
<g>
<path d="M -40,580 L -26,588 L -26,572 Z" stroke="#000000" stroke-width="4.0" fill="none"/>
<text text-anchor="start" x="-21.0" y="586.75" fill="#808080" style="font-size:18px">RHS</text>
<circle cx="-40.0" cy="580.0" r="2.0" stroke="#0000b2" stroke-width="4.0" fill="#0000b2" />
</g>
<g>
<path d="M 420,560 L 406,552 L 406,568 Z" stroke="#000000" stroke-width="4.0" fill="none"/>
<text text-anchor="end" x="401.0" y="566.75" fill="#808080" style="font-size:18px">RHS</text>
<circle cx="420.0" cy="560.0" r="2.0" stroke="#0000b2" stroke-width="4.0" fill="#0000b2" />
</g>
<g>
<path d="M 420,540 L 406,532 L 406,548 Z" stroke="#000000" stroke-width="4.0" fill="none"/>
<text text-anchor="end" x="401.0" y="546.75" fill="#808080" style="font-size:18px">LHS</text>
<circle cx="420.0" cy="540.0" r="2.0" stroke="#0000b2" stroke-width="4.0" fill="#0000b2" />
</g>
<g>
<path d="M 420,500 L 406,492 L 406,508 Z" stroke="#000000" stroke-width="4.0" fill="none"/>
<text text-anchor="end" x="401.0" y="506.75" fill="#808080" style="font-size:18px">LogicSelect</text>
<circle cx="420.0" cy="500.0" r="2.0" stroke="#0000b2" stroke-width="4.0" fill="#0000b2" />
</g>
<g>
<path d="M -120,680 L -134,672 L -134,688 Z" stroke="#000000" stroke-width="4.0" fill="none"/>
<text text-anchor="end" x="-139.0" y="686.75" fill="#808080" style="font-size:18px">RHSOut</text>
<circle cx="-120.0" cy="680.0" r="2.0" stroke="#0000b2" stroke-width="4.0" fill="#0000b2" />
</g>
<g>
<path d="M 1340,520 L 1354,528 L 1354,512 Z" stroke="#000000" stroke-width="4.0" fill="none"/>
<text text-anchor="start" x="1359.0" y="526.75" fill="#808080" style="font-size:18px">RHSOut</text>
<circle cx="1340.0" cy="520.0" r="2.0" stroke="#0000b2" stroke-width="4.0" fill="#0000b2" />
</g>
<g>
<path d="M -40,400 L -26,408 L -26,392 Z" stroke="#000000" stroke-width="4.0" fill="none"/>
<text text-anchor="start" x="-21.0" y="406.75" fill="#808080" style="font-size:18px">Clock</text>
<circle cx="-40.0" cy="400.0" r="2.0" stroke="#0000b2" stroke-width="4.0" fill="#0000b2" />
</g>
<g>
<path d="M -151,505 L -121,505 L -121,535 L -151,535 Z" stroke="#000000" stroke-width="4.0" fill="none"/>
<circle cx="-136.0" cy="520.0" r="9.0" stroke="#000000" stroke-width="4.0" fill="none" />
<text text-anchor="end" x="-165.0" y="529.0" fill="#000000" style="font-size:24px"><tspan style="font-style:italic;">LHS</tspan></text>
<circle cx="-120.0" cy="520.0" r="2.0" stroke="#b20000" stroke-width="4.0" fill="#b20000" />
</g>
</g>
</svg>