<?xml version="1.0" encoding="UTF-8" standalone="no"?>
<!-- Created with Digital by H.Neemann -->
<!-- created: Mon Nov 02 00:31:51 CST 2020 -->

<svg
   xmlns:svg="http://www.w3.org/2000/svg"
   xmlns="http://www.w3.org/2000/svg"
   width="222.45mm"
   height="71.25mm"
   viewBox="192 149 1483 475">
<g stroke-linecap="square">
<path d="M 1060,154 L 1060,160" stroke="#000000" stroke-width="4.0" fill="none"/>
<path d="M 700,354 L 700,360" stroke="#000000" stroke-width="4.0" fill="none"/>
<path d="M 1600,234 L 1600,240" stroke="#000000" stroke-width="4.0" fill="none"/>
<path d="M 300,480 L 340,480" stroke="#0000b2" stroke-width="4.0" fill="none"/>
<path d="M 680,420 L 720,420" stroke="#0000b2" stroke-width="4.0" fill="none"/>
<path d="M 1380,380 L 1380,420 L 1400,420" stroke="#0000b2" stroke-width="4.0" fill="none"/>
<path d="M 880,420 L 920,420" stroke="#0000b2" stroke-width="4.0" fill="none"/>
<path d="M 880,260 L 900,260 L 900,280" stroke="#0000b2" stroke-width="4.0" fill="none"/>
<path d="M 680,260 L 720,260" stroke="#0000b2" stroke-width="4.0" fill="none"/>
<path d="M 300,360 L 340,360" stroke="#0000b2" stroke-width="4.0" fill="none"/>
<path d="M 480,360 L 520,360" stroke="#0000b2" stroke-width="4.0" fill="none"/>
<path d="M 680,460 L 720,460" stroke="#0000b2" stroke-width="4.0" fill="none"/>
<path d="M 1360,460 L 1400,460" stroke="#0000b2" stroke-width="4.0" fill="none"/>
<path d="M 1520,460 L 1560,460" stroke="#0000b2" stroke-width="4.0" fill="none"/>
<path d="M 880,460 L 1060,460 L 1060,220" stroke="#0000b2" stroke-width="4.0" fill="none"/>
<path d="M 1520,300 L 1600,300 L 1600,240" stroke="#0000b2" stroke-width="4.0" fill="none"/>
<path d="M 880,300 L 900,300 L 900,320" stroke="#0000b2" stroke-width="4.0" fill="none"/>
<path d="M 680,300 L 720,300" stroke="#0000b2" stroke-width="4.0" fill="none"/>
<path d="M 320,240 L 360,240" stroke="#0000b2" stroke-width="4.0" fill="none"/>
<path d="M 300,400 L 340,400" stroke="#0000b2" stroke-width="4.0" fill="none"/>
<path d="M 480,400 L 520,400" stroke="#0000b2" stroke-width="4.0" fill="none"/>
<path d="M 280,560 L 360,560" stroke="#0000b2" stroke-width="4.0" fill="none"/>
<path d="M 320,180 L 360,180" stroke="#0000b2" stroke-width="4.0" fill="none"/>
<path d="M 1520,340 L 1600,340 L 1600,380 L 1520,380" stroke="#0000b2" stroke-width="4.0" fill="none"/>
<path d="M 880,340 L 920,340" stroke="#0000b2" stroke-width="4.0" fill="none"/>
<path d="M 680,340 L 720,340" stroke="#0000b2" stroke-width="4.0" fill="none"/>
<path d="M 1360,340 L 1400,340" stroke="#0000b2" stroke-width="4.0" fill="none"/>
<path d="M 640,580 L 640,500 L 720,500" stroke="#0000b2" stroke-width="4.0" fill="none"/>
<path d="M 880,500 L 900,500 L 900,520" stroke="#0000b2" stroke-width="4.0" fill="none"/>
<path d="M 1360,500 L 1380,500 L 1400,500" stroke="#0000b2" stroke-width="4.0" fill="none"/>
<path d="M 1520,500 L 1560,500" stroke="#0000b2" stroke-width="4.0" fill="none"/>
<path d="M 300,440 L 340,440" stroke="#0000b2" stroke-width="4.0" fill="none"/>
<path d="M 280,600 L 360,600" stroke="#0000b2" stroke-width="4.0" fill="none"/>
<path d="M 700,360 L 700,380 L 720,380" stroke="#0000b2" stroke-width="4.0" fill="none"/>
<path d="M 1360,380 L 1380,380 L 1400,380" stroke="#0000b2" stroke-width="4.0" fill="none"/>
<path d="M 1320,620 L 1320,540 L 1400,540" stroke="#0000b2" stroke-width="4.0" fill="none"/>
<path d="M 1520,540 L 1560,540" stroke="#0000b2" stroke-width="4.0" fill="none"/>
<path d="M 880,220 L 1060,220 L 1060,160" stroke="#0000b2" stroke-width="4.0" fill="none"/>
<path d="M 700,240 L 700,220 L 720,220" stroke="#0000b2" stroke-width="4.0" fill="none"/>
<path d="M 1600,300 L 1600,340" stroke="#0000b2" stroke-width="4.0" fill="none"/>
<path d="M 1380,500 L 1380,480 L 1240,480 L 1240,300 L 1400,300" stroke="#0000b2" stroke-width="4.0" fill="none"/>
<path d="M 630,580 L 650,580" stroke="#000000" stroke-width="6.0" fill="none"/>
<path d="M 890,320 L 910,320" stroke="#000000" stroke-width="6.0" fill="none"/>
<path d="M 890,520 L 910,520" stroke="#000000" stroke-width="6.0" fill="none"/>
<path d="M 690,240 L 710,240" stroke="#000000" stroke-width="6.0" fill="none"/>
<path d="M 890,280 L 910,280" stroke="#000000" stroke-width="6.0" fill="none"/>
<path d="M 1310,620 L 1330,620" stroke="#000000" stroke-width="6.0" fill="none"/>
<g>
<circle cx="1600.0" cy="300.0" r="4.0" stroke="#0000b2" stroke-width="4.0" fill="#0000b2" />
<circle cx="1600.0" cy="340.0" r="4.0" stroke="#0000b2" stroke-width="4.0" fill="#0000b2" />
<circle cx="1380.0" cy="500.0" r="4.0" stroke="#0000b2" stroke-width="4.0" fill="#0000b2" />
<circle cx="1380.0" cy="380.0" r="4.0" stroke="#0000b2" stroke-width="4.0" fill="#0000b2" />
<circle cx="1060.0" cy="220.0" r="4.0" stroke="#0000b2" stroke-width="4.0" fill="#0000b2" />
</g>
<g>
<path d="M 289,225 L 319,225 L 319,255 L 289,255 Z" stroke="#000000" stroke-width="4.0" fill="none"/>
<text text-anchor="end" x="275.0" y="249.0" fill="#000000" style="font-size:24px">ClockIn</text>
<path d="M 295,245 L 300,245 L 300,235 L 305,235 L 305,245 L 310,245 L 310,235 L 315,235" stroke="#000000" stroke-width="2.0" fill="none"/>
<circle cx="320.0" cy="240.0" r="2.0" stroke="#b20000" stroke-width="4.0" fill="#b20000" />
</g>
<g>
<path d="M 360,240 L 374,248 L 374,232 Z" stroke="#000000" stroke-width="4.0" fill="none"/>
<text text-anchor="start" x="379.0" y="246.75" fill="#808080" style="font-size:18px">Clock</text>
<circle cx="360.0" cy="240.0" r="2.0" stroke="#0000b2" stroke-width="4.0" fill="#0000b2" />
</g>
<g>
<path d="M 730,210 L 722,210 L 722,230 L 730,230" stroke="#000000" stroke-width="4.0" fill="none"/>
<text text-anchor="start" x="735.0" y="226.75" fill="#808080" style="font-size:18px">D1</text>
<path d="M 870,210 L 878,210 L 878,230 L 870,230" stroke="#000000" stroke-width="4.0" fill="none"/>
<text text-anchor="end" x="865.0" y="226.75" fill="#808080" style="font-size:18px">VCC</text>
<path d="M 730,250 L 722,250 L 722,270 L 730,270" stroke="#000000" stroke-width="4.0" fill="none"/>
<text text-anchor="start" x="735.0" y="266.75" fill="#808080" style="font-size:18px">Q1</text>
<path d="M 870,250 L 878,250 L 878,270 L 870,270" stroke="#000000" stroke-width="4.0" fill="none"/>
<text text-anchor="end" x="865.0" y="266.75" fill="#808080" style="font-size:18px">D0</text>
<path d="M 730,290 L 722,290 L 722,310 L 730,310" stroke="#000000" stroke-width="4.0" fill="none"/>
<text text-anchor="start" x="735.0" y="306.75" fill="#808080" style="font-size:18px">Q0</text>
<path d="M 870,290 L 878,290 L 878,310 L 870,310" stroke="#000000" stroke-width="4.0" fill="none"/>
<text text-anchor="end" x="865.0" y="306.75" fill="#808080" style="font-size:18px">CLR</text>
<path d="M 730,330 L 722,330 L 722,350 L 730,350" stroke="#000000" stroke-width="4.0" fill="none"/>
<text text-anchor="start" x="735.0" y="346.75" fill="#808080" style="font-size:18px">DN</text>
<path d="M 870,330 L 878,330 L 878,350 L 870,350" stroke="#000000" stroke-width="4.0" fill="none"/>
<text text-anchor="end" x="865.0" y="346.75" fill="#808080" style="font-size:18px"><tspan style="text-decoration:overline;">BO</tspan></text>
<path d="M 730,370 L 722,370 L 722,390 L 730,390" stroke="#000000" stroke-width="4.0" fill="none"/>
<text text-anchor="start" x="735.0" y="386.75" fill="#808080" style="font-size:18px">UP</text>
<path d="M 870,370 L 878,370 L 878,390 L 870,390" stroke="#000000" stroke-width="4.0" fill="none"/>
<text text-anchor="end" x="865.0" y="386.75" fill="#808080" style="font-size:18px"><tspan style="text-decoration:overline;">CO</tspan></text>
<path d="M 730,410 L 722,410 L 722,430 L 730,430" stroke="#000000" stroke-width="4.0" fill="none"/>
<text text-anchor="start" x="735.0" y="426.75" fill="#808080" style="font-size:18px">Q2</text>
<path d="M 870,410 L 878,410 L 878,430 L 870,430" stroke="#000000" stroke-width="4.0" fill="none"/>
<text text-anchor="end" x="865.0" y="426.75" fill="#808080" style="font-size:18px"><tspan style="text-decoration:overline;">LD</tspan></text>
<path d="M 730,450 L 722,450 L 722,470 L 730,470" stroke="#000000" stroke-width="4.0" fill="none"/>
<text text-anchor="start" x="735.0" y="466.75" fill="#808080" style="font-size:18px">Q3</text>
<path d="M 870,450 L 878,450 L 878,470 L 870,470" stroke="#000000" stroke-width="4.0" fill="none"/>
<text text-anchor="end" x="865.0" y="466.75" fill="#808080" style="font-size:18px">D2</text>
<path d="M 730,490 L 722,490 L 722,510 L 730,510" stroke="#000000" stroke-width="4.0" fill="none"/>
<text text-anchor="start" x="735.0" y="506.75" fill="#808080" style="font-size:18px">GND</text>
<path d="M 870,490 L 878,490 L 878,510 L 870,510" stroke="#000000" stroke-width="4.0" fill="none"/>
<text text-anchor="end" x="865.0" y="506.75" fill="#808080" style="font-size:18px">D3</text>
<path d="M 730,200 L 790,200 C 790,206 794,210 800,210 C 806,210 810,206 810,200 L 870,200 L 870,520 L 730,520 Z" stroke="#000000" stroke-width="4.0" fill="none"/>
<text text-anchor="end" x="800.0" y="239.0" fill="#000000" style="font-size:24px" transform="rotate(-90,800.0,230.0)" >74193</text>
<circle cx="720.0" cy="220.0" r="2.0" stroke="#0000b2" stroke-width="4.0" fill="#0000b2" />
<circle cx="720.0" cy="260.0" r="2.0" stroke="#b20000" stroke-width="4.0" fill="#b20000" />
<circle cx="720.0" cy="300.0" r="2.0" stroke="#b20000" stroke-width="4.0" fill="#b20000" />
<circle cx="720.0" cy="340.0" r="2.0" stroke="#0000b2" stroke-width="4.0" fill="#0000b2" />
<circle cx="720.0" cy="380.0" r="2.0" stroke="#0000b2" stroke-width="4.0" fill="#0000b2" />
<circle cx="720.0" cy="420.0" r="2.0" stroke="#b20000" stroke-width="4.0" fill="#b20000" />
<circle cx="720.0" cy="460.0" r="2.0" stroke="#b20000" stroke-width="4.0" fill="#b20000" />
<circle cx="720.0" cy="500.0" r="2.0" stroke="#0000b2" stroke-width="4.0" fill="#0000b2" />
<circle cx="880.0" cy="500.0" r="2.0" stroke="#0000b2" stroke-width="4.0" fill="#0000b2" />
<circle cx="880.0" cy="460.0" r="2.0" stroke="#0000b2" stroke-width="4.0" fill="#0000b2" />
<circle cx="880.0" cy="420.0" r="2.0" stroke="#0000b2" stroke-width="4.0" fill="#0000b2" />
<circle cx="880.0" cy="380.0" r="2.0" stroke="#b20000" stroke-width="4.0" fill="#b20000" />
<circle cx="880.0" cy="340.0" r="2.0" stroke="#b20000" stroke-width="4.0" fill="#b20000" />
<circle cx="880.0" cy="300.0" r="2.0" stroke="#0000b2" stroke-width="4.0" fill="#0000b2" />
<circle cx="880.0" cy="260.0" r="2.0" stroke="#0000b2" stroke-width="4.0" fill="#0000b2" />
<circle cx="880.0" cy="220.0" r="2.0" stroke="#0000b2" stroke-width="4.0" fill="#0000b2" />
</g>
<g>
<circle cx="640.0" cy="580.0" r="2.0" stroke="#b20000" stroke-width="4.0" fill="#b20000" />
</g>
<g>
<path d="M 1050,164 L 1060,151 L 1070,164" stroke="#000000" stroke-width="4.0" fill="none"/>
<circle cx="1060.0" cy="160.0" r="2.0" stroke="#b20000" stroke-width="4.0" fill="#b20000" />
</g>
<g>
<circle cx="900.0" cy="320.0" r="2.0" stroke="#b20000" stroke-width="4.0" fill="#b20000" />
</g>
<g>
<path d="M 690,364 L 700,351 L 710,364" stroke="#000000" stroke-width="4.0" fill="none"/>
<circle cx="700.0" cy="360.0" r="2.0" stroke="#b20000" stroke-width="4.0" fill="#b20000" />
</g>
<g>
<path d="M 680,340 L 666,332 L 666,348 Z" stroke="#000000" stroke-width="4.0" fill="none"/>
<text text-anchor="end" x="661.0" y="346.75" fill="#808080" style="font-size:18px">CountDown</text>
<circle cx="680.0" cy="340.0" r="2.0" stroke="#0000b2" stroke-width="4.0" fill="#0000b2" />
</g>
<g>
<circle cx="900.0" cy="520.0" r="2.0" stroke="#b20000" stroke-width="4.0" fill="#b20000" />
</g>
<g>
<circle cx="700.0" cy="240.0" r="2.0" stroke="#b20000" stroke-width="4.0" fill="#b20000" />
</g>
<g>
<circle cx="900.0" cy="280.0" r="2.0" stroke="#b20000" stroke-width="4.0" fill="#b20000" />
</g>
<g>
<circle cx="356.0" cy="360.0" r="15.0" stroke="#000000" stroke-width="4.0" fill="#000000" />
<circle cx="356.0" cy="360.0" r="13.0" stroke="#ff0000" stroke-width="0.0" fill="#ff0000" />
<circle cx="340.0" cy="360.0" r="2.0" stroke="#0000b2" stroke-width="4.0" fill="#0000b2" />
</g>
<g>
<circle cx="356.0" cy="400.0" r="15.0" stroke="#000000" stroke-width="4.0" fill="#000000" />
<circle cx="356.0" cy="400.0" r="13.0" stroke="#ff0000" stroke-width="0.0" fill="#ff0000" />
<circle cx="340.0" cy="400.0" r="2.0" stroke="#0000b2" stroke-width="4.0" fill="#0000b2" />
</g>
<g>
<circle cx="356.0" cy="440.0" r="15.0" stroke="#000000" stroke-width="4.0" fill="#000000" />
<circle cx="356.0" cy="440.0" r="13.0" stroke="#ff0000" stroke-width="0.0" fill="#ff0000" />
<circle cx="340.0" cy="440.0" r="2.0" stroke="#0000b2" stroke-width="4.0" fill="#0000b2" />
</g>
<g>
<circle cx="356.0" cy="480.0" r="15.0" stroke="#000000" stroke-width="4.0" fill="#000000" />
<circle cx="356.0" cy="480.0" r="13.0" stroke="#ff0000" stroke-width="0.0" fill="#ff0000" />
<circle cx="340.0" cy="480.0" r="2.0" stroke="#0000b2" stroke-width="4.0" fill="#0000b2" />
</g>
<g>
<path d="M 680,260 L 666,252 L 666,268 Z" stroke="#000000" stroke-width="4.0" fill="none"/>
<text text-anchor="end" x="661.0" y="266.75" fill="#808080" style="font-size:18px">C1</text>
<circle cx="680.0" cy="260.0" r="2.0" stroke="#0000b2" stroke-width="4.0" fill="#0000b2" />
</g>
<g>
<path d="M 680,300 L 666,292 L 666,308 Z" stroke="#000000" stroke-width="4.0" fill="none"/>
<text text-anchor="end" x="661.0" y="306.75" fill="#808080" style="font-size:18px">C0</text>
<circle cx="680.0" cy="300.0" r="2.0" stroke="#0000b2" stroke-width="4.0" fill="#0000b2" />
</g>
<g>
<path d="M 680,420 L 666,412 L 666,428 Z" stroke="#000000" stroke-width="4.0" fill="none"/>
<text text-anchor="end" x="661.0" y="426.75" fill="#808080" style="font-size:18px">C2</text>
<circle cx="680.0" cy="420.0" r="2.0" stroke="#0000b2" stroke-width="4.0" fill="#0000b2" />
</g>
<g>
<path d="M 680,460 L 666,452 L 666,468 Z" stroke="#000000" stroke-width="4.0" fill="none"/>
<text text-anchor="end" x="661.0" y="466.75" fill="#808080" style="font-size:18px">C3</text>
<circle cx="680.0" cy="460.0" r="2.0" stroke="#0000b2" stroke-width="4.0" fill="#0000b2" />
</g>
<g>
<path d="M 300,400 L 286,392 L 286,408 Z" stroke="#000000" stroke-width="4.0" fill="none"/>
<text text-anchor="end" x="281.0" y="406.75" fill="#808080" style="font-size:18px">C2</text>
<circle cx="300.0" cy="400.0" r="2.0" stroke="#0000b2" stroke-width="4.0" fill="#0000b2" />
</g>
<g>
<path d="M 300,360 L 286,352 L 286,368 Z" stroke="#000000" stroke-width="4.0" fill="none"/>
<text text-anchor="end" x="281.0" y="366.75" fill="#808080" style="font-size:18px">C3</text>
<circle cx="300.0" cy="360.0" r="2.0" stroke="#0000b2" stroke-width="4.0" fill="#0000b2" />
</g>
<g>
<path d="M 300,440 L 286,432 L 286,448 Z" stroke="#000000" stroke-width="4.0" fill="none"/>
<text text-anchor="end" x="281.0" y="446.75" fill="#808080" style="font-size:18px">C1</text>
<circle cx="300.0" cy="440.0" r="2.0" stroke="#0000b2" stroke-width="4.0" fill="#0000b2" />
</g>
<g>
<path d="M 300,480 L 286,472 L 286,488 Z" stroke="#000000" stroke-width="4.0" fill="none"/>
<text text-anchor="end" x="281.0" y="486.75" fill="#808080" style="font-size:18px">C0</text>
<circle cx="300.0" cy="480.0" r="2.0" stroke="#0000b2" stroke-width="4.0" fill="#0000b2" />
</g>
<g>
<path d="M 1410,290 L 1402,290 L 1402,310 L 1410,310" stroke="#000000" stroke-width="4.0" fill="none"/>
<text text-anchor="start" x="1415.0" y="306.75" fill="#808080" style="font-size:18px">1A</text>
<path d="M 1510,290 L 1518,290 L 1518,310 L 1510,310" stroke="#000000" stroke-width="4.0" fill="none"/>
<text text-anchor="end" x="1505.0" y="306.75" fill="#808080" style="font-size:18px">VCC</text>
<path d="M 1410,330 L 1402,330 L 1402,350 L 1410,350" stroke="#000000" stroke-width="4.0" fill="none"/>
<text text-anchor="start" x="1415.0" y="346.75" fill="#808080" style="font-size:18px">1B</text>
<path d="M 1510,330 L 1518,330 L 1518,350 L 1510,350" stroke="#000000" stroke-width="4.0" fill="none"/>
<text text-anchor="end" x="1505.0" y="346.75" fill="#808080" style="font-size:18px">4B</text>
<path d="M 1410,370 L 1402,370 L 1402,390 L 1410,390" stroke="#000000" stroke-width="4.0" fill="none"/>
<text text-anchor="start" x="1415.0" y="386.75" fill="#808080" style="font-size:18px">1Y</text>
<path d="M 1510,370 L 1518,370 L 1518,390 L 1510,390" stroke="#000000" stroke-width="4.0" fill="none"/>
<text text-anchor="end" x="1505.0" y="386.75" fill="#808080" style="font-size:18px">4A</text>
<path d="M 1410,410 L 1402,410 L 1402,430 L 1410,430" stroke="#000000" stroke-width="4.0" fill="none"/>
<text text-anchor="start" x="1415.0" y="426.75" fill="#808080" style="font-size:18px">2A</text>
<path d="M 1510,410 L 1518,410 L 1518,430 L 1510,430" stroke="#000000" stroke-width="4.0" fill="none"/>
<text text-anchor="end" x="1505.0" y="426.75" fill="#808080" style="font-size:18px">4Y</text>
<path d="M 1410,450 L 1402,450 L 1402,470 L 1410,470" stroke="#000000" stroke-width="4.0" fill="none"/>
<text text-anchor="start" x="1415.0" y="466.75" fill="#808080" style="font-size:18px">2B</text>
<path d="M 1510,450 L 1518,450 L 1518,470 L 1510,470" stroke="#000000" stroke-width="4.0" fill="none"/>
<text text-anchor="end" x="1505.0" y="466.75" fill="#808080" style="font-size:18px">3B</text>
<path d="M 1410,490 L 1402,490 L 1402,510 L 1410,510" stroke="#000000" stroke-width="4.0" fill="none"/>
<text text-anchor="start" x="1415.0" y="506.75" fill="#808080" style="font-size:18px">2Y</text>
<path d="M 1510,490 L 1518,490 L 1518,510 L 1510,510" stroke="#000000" stroke-width="4.0" fill="none"/>
<text text-anchor="end" x="1505.0" y="506.75" fill="#808080" style="font-size:18px">3A</text>
<path d="M 1410,530 L 1402,530 L 1402,550 L 1410,550" stroke="#000000" stroke-width="4.0" fill="none"/>
<text text-anchor="start" x="1415.0" y="546.75" fill="#808080" style="font-size:18px">GND</text>
<path d="M 1510,530 L 1518,530 L 1518,550 L 1510,550" stroke="#000000" stroke-width="4.0" fill="none"/>
<text text-anchor="end" x="1505.0" y="546.75" fill="#808080" style="font-size:18px">3Y</text>
<path d="M 1410,280 L 1450,280 C 1450,286 1454,290 1460,290 C 1466,290 1470,286 1470,280 L 1510,280 L 1510,560 L 1410,560 Z" stroke="#000000" stroke-width="4.0" fill="none"/>
<text text-anchor="end" x="1460.0" y="319.0" fill="#000000" style="font-size:24px" transform="rotate(-90,1460.0,310.0)" >7400</text>
<circle cx="1400.0" cy="300.0" r="2.0" stroke="#0000b2" stroke-width="4.0" fill="#0000b2" />
<circle cx="1400.0" cy="340.0" r="2.0" stroke="#0000b2" stroke-width="4.0" fill="#0000b2" />
<circle cx="1400.0" cy="380.0" r="2.0" stroke="#b20000" stroke-width="4.0" fill="#b20000" />
<circle cx="1400.0" cy="420.0" r="2.0" stroke="#0000b2" stroke-width="4.0" fill="#0000b2" />
<circle cx="1400.0" cy="460.0" r="2.0" stroke="#0000b2" stroke-width="4.0" fill="#0000b2" />
<circle cx="1400.0" cy="500.0" r="2.0" stroke="#b20000" stroke-width="4.0" fill="#b20000" />
<circle cx="1400.0" cy="540.0" r="2.0" stroke="#0000b2" stroke-width="4.0" fill="#0000b2" />
<circle cx="1520.0" cy="540.0" r="2.0" stroke="#b20000" stroke-width="4.0" fill="#b20000" />
<circle cx="1520.0" cy="500.0" r="2.0" stroke="#0000b2" stroke-width="4.0" fill="#0000b2" />
<circle cx="1520.0" cy="460.0" r="2.0" stroke="#0000b2" stroke-width="4.0" fill="#0000b2" />
<circle cx="1520.0" cy="420.0" r="2.0" stroke="#b20000" stroke-width="4.0" fill="#b20000" />
<circle cx="1520.0" cy="380.0" r="2.0" stroke="#0000b2" stroke-width="4.0" fill="#0000b2" />
<circle cx="1520.0" cy="340.0" r="2.0" stroke="#0000b2" stroke-width="4.0" fill="#0000b2" />
<circle cx="1520.0" cy="300.0" r="2.0" stroke="#0000b2" stroke-width="4.0" fill="#0000b2" />
</g>
<g>
<path d="M 1590,244 L 1600,231 L 1610,244" stroke="#000000" stroke-width="4.0" fill="none"/>
<circle cx="1600.0" cy="240.0" r="2.0" stroke="#b20000" stroke-width="4.0" fill="#b20000" />
</g>
<g>
<circle cx="1320.0" cy="620.0" r="2.0" stroke="#b20000" stroke-width="4.0" fill="#b20000" />
</g>
<g>
<circle cx="536.0" cy="360.0" r="15.0" stroke="#000000" stroke-width="4.0" fill="#000000" />
<circle cx="536.0" cy="360.0" r="13.0" stroke="#0033ff" stroke-width="0.0" fill="#0033ff" />
<circle cx="520.0" cy="360.0" r="2.0" stroke="#0000b2" stroke-width="4.0" fill="#0000b2" />
</g>
<g>
<circle cx="536.0" cy="400.0" r="15.0" stroke="#000000" stroke-width="4.0" fill="#000000" />
<circle cx="536.0" cy="400.0" r="13.0" stroke="#0033ff" stroke-width="0.0" fill="#0033ff" />
<circle cx="520.0" cy="400.0" r="2.0" stroke="#0000b2" stroke-width="4.0" fill="#0000b2" />
</g>
<g>
<path d="M 1360,500 L 1346,492 L 1346,508 Z" stroke="#000000" stroke-width="4.0" fill="none"/>
<text text-anchor="end" x="1341.0" y="506.75" fill="#808080" style="font-size:18px">LatchQ</text>
<circle cx="1360.0" cy="500.0" r="2.0" stroke="#0000b2" stroke-width="4.0" fill="#0000b2" />
</g>
<g>
<path d="M 1360,380 L 1346,372 L 1346,388 Z" stroke="#000000" stroke-width="4.0" fill="none"/>
<text text-anchor="end" x="1341.0" y="386.75" fill="#808080" style="font-size:18px"><tspan style="text-decoration:overline;">LatchQ</tspan></text>
<circle cx="1360.0" cy="380.0" r="2.0" stroke="#0000b2" stroke-width="4.0" fill="#0000b2" />
</g>
<g>
<path d="M 1360,460 L 1346,452 L 1346,468 Z" stroke="#000000" stroke-width="4.0" fill="none"/>
<text text-anchor="end" x="1341.0" y="466.75" fill="#808080" style="font-size:18px">LatchReset</text>
<circle cx="1360.0" cy="460.0" r="2.0" stroke="#0000b2" stroke-width="4.0" fill="#0000b2" />
</g>
<g>
<path d="M 480,360 L 466,352 L 466,368 Z" stroke="#000000" stroke-width="4.0" fill="none"/>
<text text-anchor="end" x="461.0" y="366.75" fill="#808080" style="font-size:18px">LatchQ</text>
<circle cx="480.0" cy="360.0" r="2.0" stroke="#0000b2" stroke-width="4.0" fill="#0000b2" />
</g>
<g>
<path d="M 480,400 L 466,392 L 466,408 Z" stroke="#000000" stroke-width="4.0" fill="none"/>
<text text-anchor="end" x="461.0" y="406.75" fill="#808080" style="font-size:18px"><tspan style="text-decoration:overline;">LatchQ</tspan></text>
<circle cx="480.0" cy="400.0" r="2.0" stroke="#0000b2" stroke-width="4.0" fill="#0000b2" />
</g>
<g>
<path d="M 920,340 L 934,348 L 934,332 Z" stroke="#000000" stroke-width="4.0" fill="none"/>
<text text-anchor="start" x="939.0" y="346.75" fill="#808080" style="font-size:18px">LatchReset</text>
<circle cx="920.0" cy="340.0" r="2.0" stroke="#0000b2" stroke-width="4.0" fill="#0000b2" />
</g>
<g>
<path d="M 920,420 L 934,428 L 934,412 Z" stroke="#000000" stroke-width="4.0" fill="none"/>
<text text-anchor="start" x="939.0" y="426.75" fill="#808080" style="font-size:18px">Reset</text>
<circle cx="920.0" cy="420.0" r="2.0" stroke="#0000b2" stroke-width="4.0" fill="#0000b2" />
</g>
<g>
<path d="M 1560,460 L 1574,468 L 1574,452 Z" stroke="#000000" stroke-width="4.0" fill="none"/>
<text text-anchor="start" x="1579.0" y="466.75" fill="#808080" style="font-size:18px">Clock</text>
<circle cx="1560.0" cy="460.0" r="2.0" stroke="#0000b2" stroke-width="4.0" fill="#0000b2" />
</g>
<g>
<path d="M 1560,540 L 1574,548 L 1574,532 Z" stroke="#000000" stroke-width="4.0" fill="none"/>
<text text-anchor="start" x="1579.0" y="546.75" fill="#808080" style="font-size:18px">CountDown</text>
<circle cx="1560.0" cy="540.0" r="2.0" stroke="#0000b2" stroke-width="4.0" fill="#0000b2" />
</g>
<g>
<path d="M 1560,500 L 1574,508 L 1574,492 Z" stroke="#000000" stroke-width="4.0" fill="none"/>
<text text-anchor="start" x="1579.0" y="506.75" fill="#808080" style="font-size:18px"><tspan style="text-decoration:overline;">LatchQ</tspan></text>
<circle cx="1560.0" cy="500.0" r="2.0" stroke="#0000b2" stroke-width="4.0" fill="#0000b2" />
</g>
<g>
<path d="M 360,180 L 374,188 L 374,172 Z" stroke="#000000" stroke-width="4.0" fill="none"/>
<text text-anchor="start" x="379.0" y="186.75" fill="#808080" style="font-size:18px">Reset</text>
<circle cx="360.0" cy="180.0" r="2.0" stroke="#0000b2" stroke-width="4.0" fill="#0000b2" />
</g>
<g>
<path d="M 289,165 L 319,165 L 319,195 L 289,195 Z" stroke="#000000" stroke-width="4.0" fill="none"/>
<circle cx="304.0" cy="180.0" r="9.0" stroke="#000000" stroke-width="4.0" fill="none" />
<text text-anchor="end" x="275.0" y="189.0" fill="#000000" style="font-size:24px"><tspan style="font-style:italic;">ResetIn</tspan></text>
<circle cx="320.0" cy="180.0" r="2.0" stroke="#b20000" stroke-width="4.0" fill="#b20000" />
</g>
<g>
<path d="M 1360,340 L 1346,332 L 1346,348 Z" stroke="#000000" stroke-width="4.0" fill="none"/>
<text text-anchor="end" x="1341.0" y="346.75" fill="#808080" style="font-size:18px">Reset</text>
<circle cx="1360.0" cy="340.0" r="2.0" stroke="#0000b2" stroke-width="4.0" fill="#0000b2" />
</g>
<g>
<path d="M 280,560 L 266,552 L 266,568 Z" stroke="#000000" stroke-width="4.0" fill="none"/>
<text text-anchor="end" x="261.0" y="566.75" fill="#808080" style="font-size:18px">LatchQ</text>
<circle cx="280.0" cy="560.0" r="2.0" stroke="#0000b2" stroke-width="4.0" fill="#0000b2" />
</g>
<g>
<path d="M 280,600 L 266,592 L 266,608 Z" stroke="#000000" stroke-width="4.0" fill="none"/>
<text text-anchor="end" x="261.0" y="606.75" fill="#808080" style="font-size:18px"><tspan style="text-decoration:overline;">LatchQ</tspan></text>
<circle cx="280.0" cy="600.0" r="2.0" stroke="#0000b2" stroke-width="4.0" fill="#0000b2" />
</g>
<g>
<circle cx="376.0" cy="560.0" r="9.0" stroke="#000000" stroke-width="4.0" fill="none" />
<circle cx="376.0" cy="560.0" r="15.0" stroke="#000000" stroke-width="4.0" fill="none" />
<text text-anchor="start" x="405.0" y="569.0" fill="#000000" style="font-size:24px"><tspan style="font-style:italic;">ResetOut</tspan></text>
<circle cx="360.0" cy="560.0" r="2.0" stroke="#0000b2" stroke-width="4.0" fill="#0000b2" />
</g>
<g>
<circle cx="376.0" cy="600.0" r="9.0" stroke="#000000" stroke-width="4.0" fill="none" />
<circle cx="376.0" cy="600.0" r="15.0" stroke="#000000" stroke-width="4.0" fill="none" />
<text text-anchor="start" x="405.0" y="609.0" fill="#000000" style="font-size:24px"><tspan style="font-style:italic;"><tspan style="text-decoration:overline;">ResetOut</tspan></tspan></text>
<circle cx="360.0" cy="600.0" r="2.0" stroke="#0000b2" stroke-width="4.0" fill="#0000b2" />
</g>
</g>
</svg>