<?xml version="1.0" encoding="UTF-8" standalone="no"?>
<!-- Created with Digital by H.Neemann -->
<!-- created: Fri Oct 23 11:22:05 CDT 2020 -->

<svg
   xmlns:svg="http://www.w3.org/2000/svg"
   xmlns="http://www.w3.org/2000/svg"
   width="313.35mm"
   height="98.1mm"
   viewBox="234 218 2089 654">
<g stroke-linecap="square">
<path d="M 420,640 L 520,640" stroke="#0000b2" stroke-width="4.0" fill="none"/>
<path d="M 1040,640 L 1100,640" stroke="#0000b2" stroke-width="4.0" fill="none"/>
<path d="M 1220,640 L 1280,640" stroke="#0000b2" stroke-width="4.0" fill="none"/>
<path d="M 1040,480 L 1100,480" stroke="#0000b2" stroke-width="4.0" fill="none"/>
<path d="M 1220,480 L 1280,480" stroke="#0000b2" stroke-width="4.0" fill="none"/>
<path d="M 1040,680 L 1100,680" stroke="#0000b2" stroke-width="4.0" fill="none"/>
<path d="M 1220,680 L 1280,680" stroke="#0000b2" stroke-width="4.0" fill="none"/>
<path d="M 2120,680 L 2160,680 L 2160,600 L 1980,600 L 1980,540" stroke="#0000b2" stroke-width="4.0" fill="none"/>
<path d="M 1040,520 L 1100,520" stroke="#0000b2" stroke-width="4.0" fill="none"/>
<path d="M 1220,520 L 1280,520" stroke="#0000b2" stroke-width="4.0" fill="none"/>
<path d="M 2120,520 L 2220,520" stroke="#0000b2" stroke-width="4.0" fill="none"/>
<path d="M 2120,840 L 2160,840 L 2160,760 L 1860,760 L 1860,700" stroke="#0000b2" stroke-width="4.0" fill="none"/>
<path d="M 2120,360 L 2160,360 L 2160,440 L 1840,440 L 1840,820 L 2020,820" stroke="#0000b2" stroke-width="4.0" fill="none"/>
<path d="M 420,460 L 520,460" stroke="#0000b2" stroke-width="4.0" fill="none"/>
<path d="M 1220,400 L 1300,400 L 1300,340" stroke="#0000b2" stroke-width="4.0" fill="none"/>
<path d="M 420,400 L 520,400" stroke="#0000b2" stroke-width="4.0" fill="none"/>
<path d="M 1000,400 L 1100,400" stroke="#0000b2" stroke-width="4.0" fill="none"/>
<path d="M 1040,720 L 1100,720" stroke="#0000b2" stroke-width="4.0" fill="none"/>
<path d="M 980,720 L 1020,720" stroke="#0000b2" stroke-width="4.0" fill="none"/>
<path d="M 1220,720 L 1280,720" stroke="#0000b2" stroke-width="4.0" fill="none"/>
<path d="M 1300,720 L 1360,720" stroke="#0000b2" stroke-width="4.0" fill="none"/>
<path d="M 1040,560 L 1100,560" stroke="#0000b2" stroke-width="4.0" fill="none"/>
<path d="M 1220,560 L 1280,560" stroke="#0000b2" stroke-width="4.0" fill="none"/>
<path d="M 1920,340 L 2020,340" stroke="#0000b2" stroke-width="4.0" fill="none"/>
<path d="M 1800,860 L 1800,660 L 2020,660" stroke="#0000b2" stroke-width="4.0" fill="none"/>
<path d="M 1020,820 L 1020,760 L 1100,760" stroke="#0000b2" stroke-width="4.0" fill="none"/>
<path d="M 1220,760 L 1260,760" stroke="#0000b2" stroke-width="4.0" fill="none"/>
<path d="M 1040,600 L 1100,600" stroke="#0000b2" stroke-width="4.0" fill="none"/>
<path d="M 1220,600 L 1280,600" stroke="#0000b2" stroke-width="4.0" fill="none"/>
<path d="M 1040,440 L 1100,440" stroke="#0000b2" stroke-width="4.0" fill="none"/>
<path d="M 1220,440 L 1280,440" stroke="#0000b2" stroke-width="4.0" fill="none"/>
<path d="M 420,700 L 520,700" stroke="#0000b2" stroke-width="4.0" fill="none"/>
<path d="M 1760,860 L 1800,860 L 2020,860" stroke="#0000b2" stroke-width="4.0" fill="none"/>
<path d="M 2020,380 L 1860,380 L 1860,700 L 2020,700" stroke="#0000b2" stroke-width="4.0" fill="none"/>
<path d="M 2020,500 L 1980,500 L 1980,540 L 2020,540" stroke="#0000b2" stroke-width="4.0" fill="none"/>
<path d="M 1300,334 L 1300,340" stroke="#000000" stroke-width="4.0" fill="none"/>
<path d="M 1020,720 L 1030,720 L 1040,720" stroke="#000000" stroke-width="4.0" fill="none"/>
<path d="M 1040,680 L 1030,680" stroke="#000000" stroke-width="4.0" fill="none"/>
<path d="M 1040,640 L 1030,640" stroke="#000000" stroke-width="4.0" fill="none"/>
<path d="M 1040,600 L 1030,600" stroke="#000000" stroke-width="4.0" fill="none"/>
<path d="M 1040,560 L 1030,560" stroke="#000000" stroke-width="4.0" fill="none"/>
<path d="M 1040,520 L 1030,520" stroke="#000000" stroke-width="4.0" fill="none"/>
<path d="M 1040,480 L 1030,480" stroke="#000000" stroke-width="4.0" fill="none"/>
<path d="M 1040,440 L 1030,440" stroke="#000000" stroke-width="4.0" fill="none"/>
<path d="M 1280,720 L 1290,720 L 1300,720" stroke="#000000" stroke-width="4.0" fill="none"/>
<path d="M 1280,680 L 1290,680" stroke="#000000" stroke-width="4.0" fill="none"/>
<path d="M 1280,640 L 1290,640" stroke="#000000" stroke-width="4.0" fill="none"/>
<path d="M 1280,600 L 1290,600" stroke="#000000" stroke-width="4.0" fill="none"/>
<path d="M 1280,560 L 1290,560" stroke="#000000" stroke-width="4.0" fill="none"/>
<path d="M 1280,520 L 1290,520" stroke="#000000" stroke-width="4.0" fill="none"/>
<path d="M 1280,480 L 1290,480" stroke="#000000" stroke-width="4.0" fill="none"/>
<path d="M 1280,440 L 1290,440" stroke="#000000" stroke-width="4.0" fill="none"/>
<path d="M 1010,820 L 1030,820" stroke="#000000" stroke-width="6.0" fill="none"/>
<g>
<circle cx="1860.0" cy="700.0" r="4.0" stroke="#0000b2" stroke-width="4.0" fill="#0000b2" />
<circle cx="1980.0" cy="540.0" r="4.0" stroke="#0000b2" stroke-width="4.0" fill="#0000b2" />
<circle cx="1800.0" cy="860.0" r="4.0" stroke="#0000b2" stroke-width="4.0" fill="#0000b2" />
</g>
<g>
<path d="M 1110,390 L 1102,390 L 1102,410 L 1110,410" stroke="#000000" stroke-width="4.0" fill="none"/>
<text text-anchor="start" x="1115.0" y="406.75" fill="#808080" style="font-size:18px"><tspan style="text-decoration:overline;">OC</tspan></text>
<path d="M 1210,390 L 1218,390 L 1218,410 L 1210,410" stroke="#000000" stroke-width="4.0" fill="none"/>
<text text-anchor="end" x="1205.0" y="406.75" fill="#808080" style="font-size:18px">VCC</text>
<path d="M 1110,430 L 1102,430 L 1102,450 L 1110,450" stroke="#000000" stroke-width="4.0" fill="none"/>
<text text-anchor="start" x="1115.0" y="446.75" fill="#808080" style="font-size:18px">D0</text>
<path d="M 1210,430 L 1218,430 L 1218,450 L 1210,450" stroke="#000000" stroke-width="4.0" fill="none"/>
<text text-anchor="end" x="1205.0" y="446.75" fill="#808080" style="font-size:18px">Q0</text>
<path d="M 1110,470 L 1102,470 L 1102,490 L 1110,490" stroke="#000000" stroke-width="4.0" fill="none"/>
<text text-anchor="start" x="1115.0" y="486.75" fill="#808080" style="font-size:18px">D1</text>
<path d="M 1210,470 L 1218,470 L 1218,490 L 1210,490" stroke="#000000" stroke-width="4.0" fill="none"/>
<text text-anchor="end" x="1205.0" y="486.75" fill="#808080" style="font-size:18px">Q1</text>
<path d="M 1110,510 L 1102,510 L 1102,530 L 1110,530" stroke="#000000" stroke-width="4.0" fill="none"/>
<text text-anchor="start" x="1115.0" y="526.75" fill="#808080" style="font-size:18px">D2</text>
<path d="M 1210,510 L 1218,510 L 1218,530 L 1210,530" stroke="#000000" stroke-width="4.0" fill="none"/>
<text text-anchor="end" x="1205.0" y="526.75" fill="#808080" style="font-size:18px">Q2</text>
<path d="M 1110,550 L 1102,550 L 1102,570 L 1110,570" stroke="#000000" stroke-width="4.0" fill="none"/>
<text text-anchor="start" x="1115.0" y="566.75" fill="#808080" style="font-size:18px">D3</text>
<path d="M 1210,550 L 1218,550 L 1218,570 L 1210,570" stroke="#000000" stroke-width="4.0" fill="none"/>
<text text-anchor="end" x="1205.0" y="566.75" fill="#808080" style="font-size:18px">Q3</text>
<path d="M 1110,590 L 1102,590 L 1102,610 L 1110,610" stroke="#000000" stroke-width="4.0" fill="none"/>
<text text-anchor="start" x="1115.0" y="606.75" fill="#808080" style="font-size:18px">D4</text>
<path d="M 1210,590 L 1218,590 L 1218,610 L 1210,610" stroke="#000000" stroke-width="4.0" fill="none"/>
<text text-anchor="end" x="1205.0" y="606.75" fill="#808080" style="font-size:18px">Q4</text>
<path d="M 1110,630 L 1102,630 L 1102,650 L 1110,650" stroke="#000000" stroke-width="4.0" fill="none"/>
<text text-anchor="start" x="1115.0" y="646.75" fill="#808080" style="font-size:18px">D5</text>
<path d="M 1210,630 L 1218,630 L 1218,650 L 1210,650" stroke="#000000" stroke-width="4.0" fill="none"/>
<text text-anchor="end" x="1205.0" y="646.75" fill="#808080" style="font-size:18px">Q5</text>
<path d="M 1110,670 L 1102,670 L 1102,690 L 1110,690" stroke="#000000" stroke-width="4.0" fill="none"/>
<text text-anchor="start" x="1115.0" y="686.75" fill="#808080" style="font-size:18px">D6</text>
<path d="M 1210,670 L 1218,670 L 1218,690 L 1210,690" stroke="#000000" stroke-width="4.0" fill="none"/>
<text text-anchor="end" x="1205.0" y="686.75" fill="#808080" style="font-size:18px">Q6</text>
<path d="M 1110,710 L 1102,710 L 1102,730 L 1110,730" stroke="#000000" stroke-width="4.0" fill="none"/>
<text text-anchor="start" x="1115.0" y="726.75" fill="#808080" style="font-size:18px">D7</text>
<path d="M 1210,710 L 1218,710 L 1218,730 L 1210,730" stroke="#000000" stroke-width="4.0" fill="none"/>
<text text-anchor="end" x="1205.0" y="726.75" fill="#808080" style="font-size:18px">Q7</text>
<path d="M 1110,750 L 1102,750 L 1102,770 L 1110,770" stroke="#000000" stroke-width="4.0" fill="none"/>
<text text-anchor="start" x="1115.0" y="766.75" fill="#808080" style="font-size:18px">GND</text>
<path d="M 1210,750 L 1218,750 L 1218,770 L 1210,770" stroke="#000000" stroke-width="4.0" fill="none"/>
<text text-anchor="end" x="1205.0" y="766.75" fill="#808080" style="font-size:18px">CLK</text>
<path d="M 1110,380 L 1150,380 C 1150,386 1154,390 1160,390 C 1166,390 1170,386 1170,380 L 1210,380 L 1210,780 L 1110,780 Z" stroke="#000000" stroke-width="4.0" fill="none"/>
<text text-anchor="end" x="1160.0" y="419.0" fill="#000000" style="font-size:24px" transform="rotate(-90,1160.0,410.0)" >74574</text>
<text text-anchor="middle" x="1160.0" y="808.0" fill="#000000" style="font-size:24px">8bit GPR</text>
<circle cx="1100.0" cy="400.0" r="2.0" stroke="#0000b2" stroke-width="4.0" fill="#0000b2" />
<circle cx="1100.0" cy="440.0" r="2.0" stroke="#0000b2" stroke-width="4.0" fill="#0000b2" />
<circle cx="1100.0" cy="480.0" r="2.0" stroke="#0000b2" stroke-width="4.0" fill="#0000b2" />
<circle cx="1100.0" cy="520.0" r="2.0" stroke="#0000b2" stroke-width="4.0" fill="#0000b2" />
<circle cx="1100.0" cy="560.0" r="2.0" stroke="#0000b2" stroke-width="4.0" fill="#0000b2" />
<circle cx="1100.0" cy="600.0" r="2.0" stroke="#0000b2" stroke-width="4.0" fill="#0000b2" />
<circle cx="1100.0" cy="640.0" r="2.0" stroke="#0000b2" stroke-width="4.0" fill="#0000b2" />
<circle cx="1100.0" cy="680.0" r="2.0" stroke="#0000b2" stroke-width="4.0" fill="#0000b2" />
<circle cx="1100.0" cy="720.0" r="2.0" stroke="#0000b2" stroke-width="4.0" fill="#0000b2" />
<circle cx="1100.0" cy="760.0" r="2.0" stroke="#0000b2" stroke-width="4.0" fill="#0000b2" />
<circle cx="1220.0" cy="760.0" r="2.0" stroke="#0000b2" stroke-width="4.0" fill="#0000b2" />
<circle cx="1220.0" cy="720.0" r="2.0" stroke="#b20000" stroke-width="4.0" fill="#b20000" />
<circle cx="1220.0" cy="680.0" r="2.0" stroke="#b20000" stroke-width="4.0" fill="#b20000" />
<circle cx="1220.0" cy="640.0" r="2.0" stroke="#b20000" stroke-width="4.0" fill="#b20000" />
<circle cx="1220.0" cy="600.0" r="2.0" stroke="#b20000" stroke-width="4.0" fill="#b20000" />
<circle cx="1220.0" cy="560.0" r="2.0" stroke="#b20000" stroke-width="4.0" fill="#b20000" />
<circle cx="1220.0" cy="520.0" r="2.0" stroke="#b20000" stroke-width="4.0" fill="#b20000" />
<circle cx="1220.0" cy="480.0" r="2.0" stroke="#b20000" stroke-width="4.0" fill="#b20000" />
<circle cx="1220.0" cy="440.0" r="2.0" stroke="#b20000" stroke-width="4.0" fill="#b20000" />
<circle cx="1220.0" cy="400.0" r="2.0" stroke="#0000b2" stroke-width="4.0" fill="#0000b2" />
</g>
<g>
<circle cx="1020.0" cy="820.0" r="2.0" stroke="#b20000" stroke-width="4.0" fill="#b20000" />
</g>
<g>
<path d="M 1260,760 L 1274,768 L 1274,752 Z" stroke="#000000" stroke-width="4.0" fill="none"/>
<text text-anchor="start" x="1279.0" y="766.75" fill="#808080" style="font-size:18px">Reg_Load</text>
<circle cx="1260.0" cy="760.0" r="2.0" stroke="#0000b2" stroke-width="4.0" fill="#0000b2" />
</g>
<g>
<path d="M 1290,344 L 1300,331 L 1310,344" stroke="#000000" stroke-width="4.0" fill="none"/>
<circle cx="1300.0" cy="340.0" r="2.0" stroke="#b20000" stroke-width="4.0" fill="#b20000" />
</g>
<g>
<text text-anchor="end" x="1018.0" y="732.0" fill="#808080" style="font-size:12px">0-7</text>
<text text-anchor="start" x="1042.0" y="732.0" fill="#808080" style="font-size:12px">0</text>
<text text-anchor="start" x="1042.0" y="692.0" fill="#808080" style="font-size:12px">1</text>
<text text-anchor="start" x="1042.0" y="652.0" fill="#808080" style="font-size:12px">2</text>
<text text-anchor="start" x="1042.0" y="612.0" fill="#808080" style="font-size:12px">3</text>
<text text-anchor="start" x="1042.0" y="572.0" fill="#808080" style="font-size:12px">4</text>
<text text-anchor="start" x="1042.0" y="532.0" fill="#808080" style="font-size:12px">5</text>
<text text-anchor="start" x="1042.0" y="492.0" fill="#808080" style="font-size:12px">6</text>
<text text-anchor="start" x="1042.0" y="452.0" fill="#808080" style="font-size:12px">7</text>
<path d="M 1028,722 L 1032,722 L 1032,438 L 1028,438 Z" stroke="#000000" stroke-width="4.0" fill="#000000" fill-opacity="1.0"/>
<circle cx="1020.0" cy="720.0" r="2.0" stroke="#0000b2" stroke-width="4.0" fill="#0000b2" />
<circle cx="1040.0" cy="720.0" r="2.0" stroke="#b20000" stroke-width="4.0" fill="#b20000" />
<circle cx="1040.0" cy="680.0" r="2.0" stroke="#b20000" stroke-width="4.0" fill="#b20000" />
<circle cx="1040.0" cy="640.0" r="2.0" stroke="#b20000" stroke-width="4.0" fill="#b20000" />
<circle cx="1040.0" cy="600.0" r="2.0" stroke="#b20000" stroke-width="4.0" fill="#b20000" />
<circle cx="1040.0" cy="560.0" r="2.0" stroke="#b20000" stroke-width="4.0" fill="#b20000" />
<circle cx="1040.0" cy="520.0" r="2.0" stroke="#b20000" stroke-width="4.0" fill="#b20000" />
<circle cx="1040.0" cy="480.0" r="2.0" stroke="#b20000" stroke-width="4.0" fill="#b20000" />
<circle cx="1040.0" cy="440.0" r="2.0" stroke="#b20000" stroke-width="4.0" fill="#b20000" />
</g>
<g>
<path d="M 980,720 L 966,712 L 966,728 Z" stroke="#000000" stroke-width="4.0" fill="none"/>
<text text-anchor="end" x="961.0" y="726.75" fill="#808080" style="font-size:18px">MEMDATAIn</text>
<circle cx="980.0" cy="720.0" r="2.0" stroke="#0000b2" stroke-width="4.0" fill="#0000b2" />
</g>
<g>
<text text-anchor="end" x="1278.0" y="732.0" fill="#808080" style="font-size:12px">0</text>
<text text-anchor="end" x="1278.0" y="692.0" fill="#808080" style="font-size:12px">1</text>
<text text-anchor="end" x="1278.0" y="652.0" fill="#808080" style="font-size:12px">2</text>
<text text-anchor="end" x="1278.0" y="612.0" fill="#808080" style="font-size:12px">3</text>
<text text-anchor="end" x="1278.0" y="572.0" fill="#808080" style="font-size:12px">4</text>
<text text-anchor="end" x="1278.0" y="532.0" fill="#808080" style="font-size:12px">5</text>
<text text-anchor="end" x="1278.0" y="492.0" fill="#808080" style="font-size:12px">6</text>
<text text-anchor="end" x="1278.0" y="452.0" fill="#808080" style="font-size:12px">7</text>
<text text-anchor="start" x="1302.0" y="732.0" fill="#808080" style="font-size:12px">0-7</text>
<path d="M 1288,722 L 1292,722 L 1292,438 L 1288,438 Z" stroke="#000000" stroke-width="4.0" fill="#000000" fill-opacity="1.0"/>
<circle cx="1280.0" cy="720.0" r="2.0" stroke="#0000b2" stroke-width="4.0" fill="#0000b2" />
<circle cx="1280.0" cy="680.0" r="2.0" stroke="#0000b2" stroke-width="4.0" fill="#0000b2" />
<circle cx="1280.0" cy="640.0" r="2.0" stroke="#0000b2" stroke-width="4.0" fill="#0000b2" />
<circle cx="1280.0" cy="600.0" r="2.0" stroke="#0000b2" stroke-width="4.0" fill="#0000b2" />
<circle cx="1280.0" cy="560.0" r="2.0" stroke="#0000b2" stroke-width="4.0" fill="#0000b2" />
<circle cx="1280.0" cy="520.0" r="2.0" stroke="#0000b2" stroke-width="4.0" fill="#0000b2" />
<circle cx="1280.0" cy="480.0" r="2.0" stroke="#0000b2" stroke-width="4.0" fill="#0000b2" />
<circle cx="1280.0" cy="440.0" r="2.0" stroke="#0000b2" stroke-width="4.0" fill="#0000b2" />
<circle cx="1300.0" cy="720.0" r="2.0" stroke="#b20000" stroke-width="4.0" fill="#b20000" />
</g>
<g>
<path d="M 520,460 L 534,468 L 534,452 Z" stroke="#000000" stroke-width="4.0" fill="none"/>
<text text-anchor="start" x="539.0" y="466.75" fill="#808080" style="font-size:18px">Reg_Assert</text>
<circle cx="520.0" cy="460.0" r="2.0" stroke="#0000b2" stroke-width="4.0" fill="#0000b2" />
</g>
<g>
<path d="M 520,640 L 534,648 L 534,632 Z" stroke="#000000" stroke-width="4.0" fill="none"/>
<text text-anchor="start" x="539.0" y="646.75" fill="#808080" style="font-size:18px">MEMDATAIn</text>
<circle cx="520.0" cy="640.0" r="2.0" stroke="#0000b2" stroke-width="4.0" fill="#0000b2" />
</g>
<g>
<path d="M 389,625 L 419,625 L 419,655 L 389,655 Z" stroke="#000000" stroke-width="4.0" fill="none"/>
<circle cx="404.0" cy="640.0" r="9.0" stroke="#000000" stroke-width="4.0" fill="none" />
<text text-anchor="end" x="375.0" y="649.0" fill="#000000" style="font-size:24px"><tspan style="font-style:italic;">MEMDATAIn</tspan></text>
<circle cx="420.0" cy="640.0" r="2.0" stroke="#b20000" stroke-width="4.0" fill="#b20000" />
</g>
<g>
<circle cx="536.0" cy="700.0" r="9.0" stroke="#000000" stroke-width="4.0" fill="none" />
<circle cx="536.0" cy="700.0" r="15.0" stroke="#000000" stroke-width="4.0" fill="none" />
<text text-anchor="start" x="565.0" y="709.0" fill="#000000" style="font-size:24px"><tspan style="font-style:italic;">MainBusOut</tspan></text>
<circle cx="520.0" cy="700.0" r="2.0" stroke="#0000b2" stroke-width="4.0" fill="#0000b2" />
</g>
<g>
<path d="M 389,445 L 419,445 L 419,475 L 389,475 Z" stroke="#000000" stroke-width="4.0" fill="none"/>
<circle cx="404.0" cy="460.0" r="9.0" stroke="#000000" stroke-width="4.0" fill="none" />
<text text-anchor="end" x="375.0" y="469.0" fill="#000000" style="font-size:24px"><tspan style="font-style:italic;">Reg_Assert</tspan></text>
<circle cx="420.0" cy="460.0" r="2.0" stroke="#b20000" stroke-width="4.0" fill="#b20000" />
</g>
<g>
<path d="M 520,400 L 534,408 L 534,392 Z" stroke="#000000" stroke-width="4.0" fill="none"/>
<text text-anchor="start" x="539.0" y="406.75" fill="#808080" style="font-size:18px">Reg_Load</text>
<circle cx="520.0" cy="400.0" r="2.0" stroke="#0000b2" stroke-width="4.0" fill="#0000b2" />
</g>
<g>
<path d="M 389,385 L 419,385 L 419,415 L 389,415 Z" stroke="#000000" stroke-width="4.0" fill="none"/>
<circle cx="404.0" cy="400.0" r="9.0" stroke="#000000" stroke-width="4.0" fill="none" />
<text text-anchor="end" x="375.0" y="409.0" fill="#000000" style="font-size:24px"><tspan style="font-style:italic;">Reg_Load</tspan></text>
<circle cx="420.0" cy="400.0" r="2.0" stroke="#b20000" stroke-width="4.0" fill="#b20000" />
</g>
<g>
<path d="M 420,700 L 406,692 L 406,708 Z" stroke="#000000" stroke-width="4.0" fill="none"/>
<text text-anchor="end" x="401.0" y="706.75" fill="#808080" style="font-size:18px">MainBusOut</text>
<circle cx="420.0" cy="700.0" r="2.0" stroke="#0000b2" stroke-width="4.0" fill="#0000b2" />
</g>
<g>
<path d="M 1360,720 L 1374,728 L 1374,712 Z" stroke="#000000" stroke-width="4.0" fill="none"/>
<text text-anchor="start" x="1379.0" y="726.75" fill="#808080" style="font-size:18px">MainBusOut</text>
<circle cx="1360.0" cy="720.0" r="2.0" stroke="#0000b2" stroke-width="4.0" fill="#0000b2" />
</g>
<g>
<path d="M 2070,390 L 2021,390 L 2021,330 L 2070,330 C 2080,330 2100,340 2099,360 C 2099,380 2080,390 2070,390 Z" stroke="#000000" stroke-width="4.0" fill="none"/>
<circle cx="2110.0" cy="360.0" r="9.0" stroke="#000000" stroke-width="4.0" fill="none" />
<circle cx="2020.0" cy="340.0" r="2.0" stroke="#0000b2" stroke-width="4.0" fill="#0000b2" />
<circle cx="2020.0" cy="380.0" r="2.0" stroke="#0000b2" stroke-width="4.0" fill="#0000b2" />
<circle cx="2120.0" cy="360.0" r="2.0" stroke="#b20000" stroke-width="4.0" fill="#b20000" />
</g>
<g>
<path d="M 2070,550 L 2021,550 L 2021,490 L 2070,490 C 2080,490 2100,500 2099,520 C 2099,540 2080,550 2070,550 Z" stroke="#000000" stroke-width="4.0" fill="none"/>
<circle cx="2110.0" cy="520.0" r="9.0" stroke="#000000" stroke-width="4.0" fill="none" />
<circle cx="2020.0" cy="500.0" r="2.0" stroke="#0000b2" stroke-width="4.0" fill="#0000b2" />
<circle cx="2020.0" cy="540.0" r="2.0" stroke="#0000b2" stroke-width="4.0" fill="#0000b2" />
<circle cx="2120.0" cy="520.0" r="2.0" stroke="#b20000" stroke-width="4.0" fill="#b20000" />
</g>
<g>
<path d="M 2070,710 L 2021,710 L 2021,650 L 2070,650 C 2080,650 2100,660 2099,680 C 2099,700 2080,710 2070,710 Z" stroke="#000000" stroke-width="4.0" fill="none"/>
<circle cx="2110.0" cy="680.0" r="9.0" stroke="#000000" stroke-width="4.0" fill="none" />
<circle cx="2020.0" cy="660.0" r="2.0" stroke="#0000b2" stroke-width="4.0" fill="#0000b2" />
<circle cx="2020.0" cy="700.0" r="2.0" stroke="#0000b2" stroke-width="4.0" fill="#0000b2" />
<circle cx="2120.0" cy="680.0" r="2.0" stroke="#b20000" stroke-width="4.0" fill="#b20000" />
</g>
<g>
<path d="M 2070,870 L 2021,870 L 2021,810 L 2070,810 C 2080,810 2100,820 2099,840 C 2099,860 2080,870 2070,870 Z" stroke="#000000" stroke-width="4.0" fill="none"/>
<circle cx="2110.0" cy="840.0" r="9.0" stroke="#000000" stroke-width="4.0" fill="none" />
<circle cx="2020.0" cy="820.0" r="2.0" stroke="#0000b2" stroke-width="4.0" fill="#0000b2" />
<circle cx="2020.0" cy="860.0" r="2.0" stroke="#0000b2" stroke-width="4.0" fill="#0000b2" />
<circle cx="2120.0" cy="840.0" r="2.0" stroke="#b20000" stroke-width="4.0" fill="#b20000" />
</g>
<g>
<path d="M 1920,340 L 1906,332 L 1906,348 Z" stroke="#000000" stroke-width="4.0" fill="none"/>
<text text-anchor="end" x="1901.0" y="346.75" fill="#808080" style="font-size:18px">Reg_Load</text>
<circle cx="1920.0" cy="340.0" r="2.0" stroke="#0000b2" stroke-width="4.0" fill="#0000b2" />
</g>
<g>
<path d="M 1760,860 L 1746,852 L 1746,868 Z" stroke="#000000" stroke-width="4.0" fill="none"/>
<text text-anchor="end" x="1741.0" y="866.75" fill="#808080" style="font-size:18px">Reg_Assert</text>
<circle cx="1760.0" cy="860.0" r="2.0" stroke="#0000b2" stroke-width="4.0" fill="#0000b2" />
</g>
<g>
<path d="M 2220,520 L 2234,528 L 2234,512 Z" stroke="#000000" stroke-width="4.0" fill="none"/>
<text text-anchor="start" x="2239.0" y="526.75" fill="#808080" style="font-size:18px">Reg_Valid</text>
<circle cx="2220.0" cy="520.0" r="2.0" stroke="#0000b2" stroke-width="4.0" fill="#0000b2" />
</g>
<g>
<path d="M 1000,400 L 986,392 L 986,408 Z" stroke="#000000" stroke-width="4.0" fill="none"/>
<text text-anchor="end" x="981.0" y="406.75" fill="#808080" style="font-size:18px">Reg_Assert</text>
<circle cx="1000.0" cy="400.0" r="2.0" stroke="#0000b2" stroke-width="4.0" fill="#0000b2" />
</g>
<g>
<text text-anchor="start" x="1760.0" y="238.0" fill="#000000" style="font-size:24px">Leaving this on for now, but I think this is</text>
<text text-anchor="start" x="1760.0" y="268.0" fill="#000000" style="font-size:24px">only used for driving the LEDs?</text>
</g>
</g>
</svg>